# xmcd
#
# Track frame offsets: 
#        150
#        13775
#        28250
#        41764
#        54226
#        68534
#        82236
#        95359
#        107577
#        120882
#        135503
#        148996
#        162071
#        175689
#        189620
#        202423
#        217852
#        232327
#        247060
#        260636
#        273934
#        287928
#        301818
#        317073
#        329096
#        343229
#
# Disc length: 4794 seconds
#
# Revision: 0
# Processed by: cddbd v1.5.2PL0 Copyright (c) Steve Scherf et al.
# Submitted via: ExactAudioCopy v0.99pb3
#
DISCID=9012b81a
DTITLE=Blind Blake - No Dough Blues
DYEAR=2009
DGENRE=Blues
TTITLE0=Blake's Worried Blues
TTITLE1=West Coast Blues (2nd recording, 1st take)
TTITLE2=Skeedle Loo Doo Blues (1st take)
TTITLE3=Dry Bone Shuffle (2nd take)
TTITLE4=Hey Hey Daddy Blues
TTITLE5=Sea Board Stomp
TTITLE6=Southern Rag
TTITLE7=He's In The Jailhouse Now
TTITLE8=Wabash Rag
TTITLE9=Doggin' Me Mama Blues
TTITLE10=No Dough Blues
TTITLE11=Panther Squall Blues
TTITLE12=Fightin' The Jug
TTITLE13=Early Morning Blues
TTITLE14=Chump Man Blues
TTITLE15=Georgia Bound
TTITLE16=Hastings St.
TTITLE17=I Was Afraid Of That
TTITLE18=Ice Man Blues
TTITLE19=Too Tight Blues No 2
TTITLE20=Blind Arthur's Breakdown
TTITLE21=Guitar Chimes Blues
TTITLE22=Diddie Wah Diddie No 2
TTITLE23=Hard Pushing Papa
TTITLE24=Rope Stretchin' Blues Part 1 (2nd take)
TTITLE25=Depression's Gone From Me Blues
EXTD=
EXTT0=
EXTT1=
EXTT2=
EXTT3=
EXTT4=
EXTT5=
EXTT6=
EXTT7=
EXTT8=
EXTT9=
EXTT10=
EXTT11=
EXTT12=
EXTT13=
EXTT14=
EXTT15=
EXTT16=
EXTT17=
EXTT18=
EXTT19=
EXTT20=
EXTT21=
EXTT22=
EXTT23=
EXTT24=
EXTT25=
PLAYORDER=
